<mxfile host="app.diagrams.net" modified="2022-08-31T06:49:05.210Z" agent="5.0 (Windows NT 10.0; Win64; x64) AppleWebKit/537.36 (KHTML, like Gecko) Chrome/104.0.5112.102 Safari/537.36 Edg/104.0.1293.63" etag="1b7b6goxzbbHF7P3cKLF" version="20.2.4" type="github">
  <diagram id="C5RBs43oDa-KdzZeNtuy" name="Page-1">
    <mxGraphModel dx="1038" dy="579" grid="1" gridSize="10" guides="1" tooltips="1" connect="1" arrows="1" fold="1" page="1" pageScale="1" pageWidth="827" pageHeight="1169" math="0" shadow="0">
      <root>
        <mxCell id="WIyWlLk6GJQsqaUBKTNV-0" />
        <mxCell id="WIyWlLk6GJQsqaUBKTNV-1" parent="WIyWlLk6GJQsqaUBKTNV-0" />
        <mxCell id="WIyWlLk6GJQsqaUBKTNV-2" value="" style="rounded=0;html=1;jettySize=auto;orthogonalLoop=1;fontSize=11;endArrow=block;endFill=0;endSize=8;strokeWidth=1;shadow=0;labelBackgroundColor=none;edgeStyle=orthogonalEdgeStyle;" parent="WIyWlLk6GJQsqaUBKTNV-1" source="WIyWlLk6GJQsqaUBKTNV-3" target="WIyWlLk6GJQsqaUBKTNV-6" edge="1">
          <mxGeometry relative="1" as="geometry" />
        </mxCell>
        <mxCell id="WIyWlLk6GJQsqaUBKTNV-3" value="ServiceBean#onApplicationEvent" style="rounded=1;whiteSpace=wrap;html=1;fontSize=12;glass=0;strokeWidth=1;shadow=0;" parent="WIyWlLk6GJQsqaUBKTNV-1" vertex="1">
          <mxGeometry x="160" y="80" width="120" height="40" as="geometry" />
        </mxCell>
        <mxCell id="WIyWlLk6GJQsqaUBKTNV-4" value="否" style="rounded=0;html=1;jettySize=auto;orthogonalLoop=1;fontSize=11;endArrow=block;endFill=0;endSize=8;strokeWidth=1;shadow=0;labelBackgroundColor=none;edgeStyle=orthogonalEdgeStyle;" parent="WIyWlLk6GJQsqaUBKTNV-1" source="WIyWlLk6GJQsqaUBKTNV-6" target="NjbQYt7I2Ad1JizP4MFG-14" edge="1">
          <mxGeometry y="20" relative="1" as="geometry">
            <mxPoint as="offset" />
            <mxPoint x="220" y="310" as="targetPoint" />
          </mxGeometry>
        </mxCell>
        <mxCell id="NjbQYt7I2Ad1JizP4MFG-8" value="是" style="edgeStyle=orthogonalEdgeStyle;shape=connector;rounded=0;orthogonalLoop=1;jettySize=auto;html=1;shadow=0;labelBackgroundColor=none;fontFamily=Helvetica;fontSize=11;fontColor=default;endArrow=block;endFill=0;endSize=8;strokeColor=default;strokeWidth=1;" edge="1" parent="WIyWlLk6GJQsqaUBKTNV-1" source="WIyWlLk6GJQsqaUBKTNV-6" target="NjbQYt7I2Ad1JizP4MFG-5">
          <mxGeometry y="10" relative="1" as="geometry">
            <mxPoint as="offset" />
          </mxGeometry>
        </mxCell>
        <mxCell id="WIyWlLk6GJQsqaUBKTNV-6" value="是否注册过" style="rhombus;whiteSpace=wrap;html=1;shadow=0;fontFamily=Helvetica;fontSize=12;align=center;strokeWidth=1;spacing=6;spacingTop=-4;" parent="WIyWlLk6GJQsqaUBKTNV-1" vertex="1">
          <mxGeometry x="170" y="170" width="100" height="80" as="geometry" />
        </mxCell>
        <mxCell id="NjbQYt7I2Ad1JizP4MFG-5" value="结束" style="rounded=1;whiteSpace=wrap;html=1;fontSize=12;glass=0;strokeWidth=1;shadow=0;" vertex="1" parent="WIyWlLk6GJQsqaUBKTNV-1">
          <mxGeometry x="350" y="190" width="120" height="40" as="geometry" />
        </mxCell>
        <mxCell id="NjbQYt7I2Ad1JizP4MFG-12" value="&lt;b&gt;&lt;font style=&quot;font-size: 22px;&quot;&gt;dubbo服务提供者注册流程&lt;/font&gt;&lt;/b&gt;" style="text;html=1;align=center;verticalAlign=middle;resizable=0;points=[];autosize=1;strokeColor=none;fillColor=none;fontSize=11;fontFamily=Helvetica;fontColor=default;" vertex="1" parent="WIyWlLk6GJQsqaUBKTNV-1">
          <mxGeometry x="110" y="10" width="290" height="40" as="geometry" />
        </mxCell>
        <mxCell id="NjbQYt7I2Ad1JizP4MFG-18" value="" style="edgeStyle=orthogonalEdgeStyle;shape=connector;rounded=0;orthogonalLoop=1;jettySize=auto;html=1;shadow=0;labelBackgroundColor=none;fontFamily=Helvetica;fontSize=12;fontColor=default;endArrow=block;endFill=0;endSize=8;strokeColor=default;strokeWidth=1;" edge="1" parent="WIyWlLk6GJQsqaUBKTNV-1" source="NjbQYt7I2Ad1JizP4MFG-14" target="NjbQYt7I2Ad1JizP4MFG-17">
          <mxGeometry relative="1" as="geometry" />
        </mxCell>
        <mxCell id="NjbQYt7I2Ad1JizP4MFG-14" value="&lt;font style=&quot;font-size: 12px;&quot;&gt;ServiceConfig#export&lt;/font&gt;" style="rounded=1;whiteSpace=wrap;html=1;fontFamily=Helvetica;fontSize=22;fontColor=default;" vertex="1" parent="WIyWlLk6GJQsqaUBKTNV-1">
          <mxGeometry x="160" y="290" width="120" height="50" as="geometry" />
        </mxCell>
        <mxCell id="NjbQYt7I2Ad1JizP4MFG-20" value="是" style="edgeStyle=orthogonalEdgeStyle;shape=connector;rounded=0;orthogonalLoop=1;jettySize=auto;html=1;shadow=0;labelBackgroundColor=none;fontFamily=Helvetica;fontSize=12;fontColor=default;endArrow=block;endFill=0;endSize=8;strokeColor=default;strokeWidth=1;" edge="1" parent="WIyWlLk6GJQsqaUBKTNV-1" source="NjbQYt7I2Ad1JizP4MFG-17" target="NjbQYt7I2Ad1JizP4MFG-23">
          <mxGeometry x="0.0811" y="15" relative="1" as="geometry">
            <mxPoint x="354" y="445" as="targetPoint" />
            <mxPoint as="offset" />
          </mxGeometry>
        </mxCell>
        <mxCell id="NjbQYt7I2Ad1JizP4MFG-22" value="否" style="edgeStyle=orthogonalEdgeStyle;shape=connector;rounded=0;orthogonalLoop=1;jettySize=auto;html=1;shadow=0;labelBackgroundColor=none;fontFamily=Helvetica;fontSize=12;fontColor=default;endArrow=block;endFill=0;endSize=8;strokeColor=default;strokeWidth=1;" edge="1" parent="WIyWlLk6GJQsqaUBKTNV-1" source="NjbQYt7I2Ad1JizP4MFG-17" target="NjbQYt7I2Ad1JizP4MFG-21">
          <mxGeometry y="20" relative="1" as="geometry">
            <mxPoint as="offset" />
          </mxGeometry>
        </mxCell>
        <mxCell id="NjbQYt7I2Ad1JizP4MFG-17" value="&lt;font style=&quot;font-size: 12px;&quot;&gt;是否允许暴露&lt;/font&gt;" style="rhombus;whiteSpace=wrap;html=1;fontSize=22;rounded=1;" vertex="1" parent="WIyWlLk6GJQsqaUBKTNV-1">
          <mxGeometry x="160" y="405" width="120" height="80" as="geometry" />
        </mxCell>
        <mxCell id="NjbQYt7I2Ad1JizP4MFG-21" value="结束" style="whiteSpace=wrap;html=1;fontSize=22;rounded=1;" vertex="1" parent="WIyWlLk6GJQsqaUBKTNV-1">
          <mxGeometry x="160" y="555" width="120" height="60" as="geometry" />
        </mxCell>
        <mxCell id="NjbQYt7I2Ad1JizP4MFG-23" value="" style="rounded=1;whiteSpace=wrap;html=1;fontFamily=Helvetica;fontSize=12;fontColor=default;" vertex="1" parent="WIyWlLk6GJQsqaUBKTNV-1">
          <mxGeometry x="360" y="415" width="120" height="60" as="geometry" />
        </mxCell>
      </root>
    </mxGraphModel>
  </diagram>
</mxfile>
